<?xml version="1.0" encoding="UTF-8" standalone="no"?>
<svg
   width="29"
   height="29"
   viewBox="0 0 29 29"
   fill="none"
   version="1.1"
   id="svg18"
   xmlns="http://www.w3.org/2000/svg"
   xmlns:svg="http://www.w3.org/2000/svg">
  <defs
     id="defs22" />
  <path
     id="Forma 1_2"
     d="m 14.5,19.937 c 4.5,0 8.156,-4.473 8.156,-9.969 C 22.656,4.472 19,0 14.5,0 13.3631,0.0217413 12.2463,0.303398 11.2351,0.823397 10.2239,1.34339 9.3451,2.08794 8.666,3 7.1266,4.99573 6.3082,7.45381 6.344,9.974 c 0,5.491 3.656,9.963 8.156,9.963 z m 0,-18.124 c 3.5,0 6.344,3.659 6.344,8.156 0,4.497 -2.846,8.156 -6.344,8.156 -3.498,0 -6.344,-3.66 -6.345,-8.156 C 8.154,5.473 11,1.813 14.5,1.813 Z m 6.344,16.312 c -0.2404,0 -0.471,0.0955 -0.641,0.2655 -0.17,0.17 -0.2655,0.4006 -0.2655,0.641 0,0.2404 0.0955,0.471 0.2655,0.641 0.17,0.17 0.4006,0.2655 0.641,0.2655 1.682,0.0019 3.2946,0.6708 4.4839,1.8602 1.1893,1.1893 1.8582,2.8018 1.8601,4.4838 -5e-4,0.2401 -0.0962,0.4703 -0.266,0.6401 -0.1698,0.1697 -0.3999,0.2654 -0.64,0.2659 H 2.72 C 2.4798,27.1875 2.2497,27.0918 2.08,26.9221 1.9102,26.7523 1.8145,26.5221 1.814,26.282 1.8161,24.6001 2.4852,22.9877 3.6744,21.7985 4.8637,20.6092 6.4761,19.9401 8.158,19.938 c 0.2402,0 0.4707,-0.0955 0.6406,-0.2654 C 8.9685,19.5027 9.064,19.2723 9.064,19.032 9.064,18.7917 8.9685,18.5613 8.7986,18.3914 8.6287,18.2215 8.3982,18.126 8.158,18.126 5.9954,18.1279 3.922,18.9875 2.3926,20.5164 0.8631,22.0453 0.0026,24.1185 0,26.281 8e-4,27.0019 0.2875,27.693 0.7972,28.2027 1.307,28.7125 1.9981,28.9992 2.719,29 h 23.563 c 0.7207,-0.0011 1.4116,-0.2879 1.9211,-0.7976 0.5095,-0.5097 0.7961,-1.2007 0.7969,-1.9214 -0.0026,-2.1623 -0.8628,-4.2353 -2.3917,-5.7642 -1.529,-1.529 -3.602,-2.3892 -5.7643,-2.3918 z"
     fill="#e8e8e8" />
</svg>
