<?xml version="1.0" encoding="UTF-8" standalone="no"?>
<svg
   width="31.995529"
   height="29.000002"
   viewBox="0 0 31.995529 29.000002"
   fill="none"
   version="1.1"
   id="svg18"
   sodipodi:docname="Button copy1.svg"
   inkscape:version="1.2.2 (732a01da63, 2022-12-09)"
   xmlns:inkscape="http://www.inkscape.org/namespaces/inkscape"
   xmlns:sodipodi="http://sodipodi.sourceforge.net/DTD/sodipodi-0.dtd"
   xmlns="http://www.w3.org/2000/svg"
   xmlns:svg="http://www.w3.org/2000/svg">
  <defs
     id="defs22" />
  <sodipodi:namedview
     id="namedview20"
     pagecolor="#ffffff"
     bordercolor="#000000"
     borderopacity="0.25"
     inkscape:showpageshadow="2"
     inkscape:pageopacity="0.0"
     inkscape:pagecheckerboard="0"
     inkscape:deskcolor="#d1d1d1"
     showgrid="true"
     inkscape:zoom="11.989685"
     inkscape:cx="66.3487"
     inkscape:cy="7.0477249"
     inkscape:window-width="2222"
     inkscape:window-height="1230"
     inkscape:window-x="1026"
     inkscape:window-y="120"
     inkscape:window-maximized="0"
     inkscape:current-layer="svg18">
    <inkscape:grid
       type="xygrid"
       id="grid128" />
  </sodipodi:namedview>
  <g
     id="Group 35"
     transform="translate(-127)">
    <path
       id="Forma 1_3"
       d="m 153.201,29 c -0.648,-0.0262 -1.259,-0.3052 -1.704,-0.7773 -0.444,-0.4721 -0.686,-1.0995 -0.673,-1.7477 0.014,-0.6481 0.28,-1.2653 0.743,-1.7191 0.463,-0.4537 1.086,-0.7079 1.734,-0.7079 0.648,0 1.271,0.2542 1.734,0.7079 0.463,0.4538 0.729,1.071 0.742,1.7191 0.014,0.6482 -0.228,1.2756 -0.672,1.7477 -0.445,0.4721 -1.056,0.7511 -1.704,0.7773 z m -19.448,-2.68 c 0,-0.53 0.157,-1.0482 0.452,-1.4889 0.294,-0.4407 0.713,-0.7842 1.202,-0.9871 0.49,-0.2028 1.029,-0.2559 1.549,-0.1525 0.52,0.1034 0.997,0.3587 1.372,0.7335 0.375,0.3748 0.63,0.8523 0.734,1.3722 0.103,0.5198 0.05,1.0587 -0.153,1.5484 -0.203,0.4897 -0.546,0.9083 -0.987,1.2027 -0.441,0.2945 -0.959,0.4517 -1.489,0.4517 -0.352,3e-4 -0.701,-0.0689 -1.026,-0.2034 -0.326,-0.1346 -0.621,-0.332 -0.87,-0.5808 -0.249,-0.2489 -0.447,-0.5445 -0.582,-0.8697 -0.135,-0.3253 -0.204,-0.674 -0.204,-1.0261 z m 3.8,-5.634 c -0.259,8e-4 -0.512,-0.0836 -0.719,-0.2403 -0.207,-0.1566 -0.356,-0.3768 -0.426,-0.6267 L 131.575,2.36401 h -3.393 c -0.313,0 -0.614,-0.12454 -0.836,-0.3462 C 127.125,1.79614 127,1.49549 127,1.18201 127,0.868519 127.125,0.567873 127.346,0.346205 127.568,0.124537 127.869,5.81268e-6 128.182,5.81268e-6 h 4.281 C 132.723,-8.0736e-4 132.975,0.0837201 133.182,0.240568 c 0.206,0.156848 0.356,0.377316 0.425,0.627438 L 138.44,18.323 h 13.178 l 4.383,-10.04799 h -14.6 c -0.158,0.0046 -0.316,-0.02259 -0.463,-0.07994 -0.148,-0.05736 -0.282,-0.14373 -0.396,-0.25399 -0.113,-0.11026 -0.203,-0.24217 -0.265,-0.38793 -0.062,-0.14576 -0.093,-0.3024 -0.093,-0.46065 0,-0.15824 0.031,-0.31488 0.093,-0.46064 0.062,-0.14576 0.152,-0.27767 0.265,-0.38793 0.114,-0.11026 0.248,-0.19663 0.396,-0.25399 0.147,-0.05735 0.305,-0.08453 0.463,-0.07993 h 16.413 c 0.196,-5e-5 0.388,0.04865 0.56,0.14171 0.173,0.09306 0.319,0.22754 0.426,0.39129 0.108,0.16428 0.173,0.35268 0.191,0.54844 0.017,0.19576 -0.014,0.39279 -0.091,0.57355 l -5.405,12.412 c -0.092,0.2106 -0.244,0.3898 -0.437,0.5157 -0.192,0.1259 -0.417,0.1931 -0.647,0.1933 z"
       fill="#e8e8e8" />
  </g>
</svg>
